<?xml version="1.0" encoding="UTF-8"?>
<svg id="Calque_1" xmlns="http://www.w3.org/2000/svg" version="1.1" viewBox="0 0 816 231.48">
  <!-- Generator: Adobe Illustrator 30.3.0, SVG Export Plug-In . SVG Version: 2.1.3 Build 182)  -->
  <g id="Design">
    <path d="M63.59,126.01v-34.47l30.92-17.85,30.92,17.85v34.47l-30.92,17.85-30.92-17.85ZM63.59,68.81l30.92-17.85,85.48,49.35v-39.87l-56.32-32.52c-18.04-10.42-40.28-10.42-58.32,0l-1.76,1.02v39.87h0ZM145.47,103.51v33.67l-50.95,29.42h0l-34.53,19.94,34.53,19.94,56.32-32.52c18.04-10.42,29.16-29.67,29.16-50.51h0l-34.53-19.94ZM74.48,155.03l-30.92-17.85V40.51L9.03,60.44v63.01c0,20.84,11.12,40.09,29.16,50.51l1.76,1.02,34.53-19.95Z" fill="#1e2e54"/>
    <path d="M254.18,111.99v7.4h-35.65v-47.53h34.69v7.4h-25.87v12.36h22.95v7.27h-22.95v13.1h26.83ZM264.02,71.86h20.78c15.41,0,25.94,9.51,25.94,23.76s-10.52,23.76-25.94,23.76h-20.78v-47.52ZM284.39,111.92c10.59,0,17.45-6.45,17.45-16.3s-6.86-16.29-17.45-16.29h-11.54v32.59h11.54ZM355.74,111.99v7.4h-35.65v-47.53h34.69v7.4h-25.87v12.36h22.95v7.27h-22.95v13.1h26.83ZM396.68,119.39l-9.71-13.92c-.61.07-1.22.07-1.83.07h-10.73v13.85h-8.83v-47.53h19.55c12.49,0,20.23,6.38,20.23,16.91,0,7.2-3.67,12.49-10.12,15l10.93,15.62h-9.49ZM384.73,79.33h-10.32v18.94h10.32c7.74,0,11.75-3.53,11.75-9.51-.01-5.97-4.01-9.43-11.75-9.43ZM446.3,119.39l-9.71-13.92c-.61.07-1.22.07-1.83.07h-10.73v13.85h-8.83v-47.53h19.55c12.49,0,20.23,6.38,20.23,16.91,0,7.2-3.67,12.49-10.12,15l10.93,15.62h-9.49ZM434.35,79.33h-10.32v18.94h10.32c7.74,0,11.75-3.53,11.75-9.51s-4.01-9.43-11.75-9.43ZM495.66,108.39h-23.76l-4.68,11h-9.1l21.39-47.53h8.69l21.46,47.53h-9.23l-4.77-11ZM492.74,101.47l-8.96-20.78-8.89,20.78h17.85ZM574.2,88.77c0,10.46-7.74,16.91-20.23,16.91h-10.73v13.71h-8.83v-47.53h19.55c12.5,0,20.24,6.39,20.24,16.91ZM565.31,88.77c0-5.97-4.01-9.44-11.74-9.44h-10.32v18.87h10.32c7.73.01,11.74-3.46,11.74-9.43ZM583.03,71.86h8.83v47.53h-8.83v-47.53ZM600.68,114.37l3.06-6.86c3.8,3.06,9.84,5.23,15.68,5.23,7.4,0,10.52-2.65,10.52-6.18,0-10.25-28.24-3.53-28.24-21.18,0-7.67,6.11-14.19,19.15-14.19,5.7,0,11.68,1.49,15.82,4.21l-2.78,6.86c-4.28-2.51-8.96-3.73-13.1-3.73-7.33,0-10.32,2.85-10.32,6.45,0,10.12,28.18,3.53,28.18,20.98,0,7.6-6.18,14.12-19.21,14.12-7.42-.01-14.82-2.32-18.76-5.71ZM643.99,95.63c0-14.19,10.86-24.44,25.46-24.44,7.74,0,14.39,2.78,18.81,7.94l-5.7,5.36c-3.46-3.73-7.74-5.57-12.7-5.57-9.85,0-16.97,6.93-16.97,16.7s7.13,16.7,16.97,16.7c4.96,0,9.23-1.83,12.7-5.64l5.7,5.43c-4.41,5.16-11.07,7.94-18.88,7.94-14.53.02-25.39-10.23-25.39-24.42ZM696.74,71.86h8.83v47.53h-8.83v-47.53ZM760.63,71.86v47.53h-7.27l-26.21-32.18v32.18h-8.76v-47.53h7.26l26.21,32.18v-32.18h8.77ZM809.03,111.99v7.4h-35.64v-47.53h34.69v7.4h-25.87v12.36h22.95v7.27h-22.95v13.1h26.82Z" fill="#1e2e54"/>
    <rect x="9.03" y="-89.81" width=".26" height="1.55"/>
    <text transform="translate(218.53 158.1) scale(1.1 1)" fill="#f5a364" font-family="Montserrat-Regular, Montserrat" font-size="24" letter-spacing=".06em"><tspan x="0" y="0">RÉSEAU PARTENAIRES PROFESSIONNEL</tspan></text>
  </g>
</svg>