<svg width="800" height="207" viewBox="0 0 800 207" fill="none" xmlns="http://www.w3.org/2000/svg">
<path d="M54.56 126.01V91.54L85.48 73.69L116.4 91.54V126.01L85.48 143.86L54.56 126.01ZM54.56 68.81L85.48 50.96L170.96 100.31V60.44L114.64 27.92C96.6 17.5 74.36 17.5 56.32 27.92L54.56 28.94V68.81ZM136.44 103.51V137.18L85.49 166.6L50.96 186.54L85.49 206.48L141.81 173.96C159.85 163.54 170.97 144.29 170.97 123.45L136.44 103.51ZM65.45 155.03L34.53 137.18V40.51L0 60.44V123.45C0 144.29 11.12 163.54 29.16 173.96L30.92 174.98L65.45 155.03Z" fill="#F5A364"/>
<path d="M245.15 111.99V119.39H209.5V71.8599H244.19V79.2599H218.32V91.6199H241.27V98.8899H218.32V111.99H245.15ZM254.99 71.8599H275.77C291.18 71.8599 301.71 81.3699 301.71 95.6199C301.71 109.87 291.19 119.38 275.77 119.38H254.99V71.8599ZM275.36 111.92C285.95 111.92 292.81 105.47 292.81 95.6199C292.81 85.7699 285.95 79.3299 275.36 79.3299H263.82V111.92H275.36ZM346.71 111.99V119.39H311.06V71.8599H345.75V79.2599H319.88V91.6199H342.83V98.8899H319.88V111.99H346.71ZM387.65 119.39L377.94 105.47C377.33 105.54 376.72 105.54 376.11 105.54H365.38V119.39H356.55V71.8599H376.1C388.59 71.8599 396.33 78.2399 396.33 88.7699C396.33 95.9699 392.66 101.26 386.21 103.77L397.14 119.39H387.65ZM375.7 79.3299H365.38V98.2699H375.7C383.44 98.2699 387.45 94.7399 387.45 88.7599C387.44 82.7899 383.44 79.3299 375.7 79.3299ZM437.27 119.39L427.56 105.47C426.95 105.54 426.34 105.54 425.73 105.54H415V119.39H406.17V71.8599H425.72C438.21 71.8599 445.95 78.2399 445.95 88.7699C445.95 95.9699 442.28 101.26 435.83 103.77L446.76 119.39H437.27ZM425.32 79.3299H415V98.2699H425.32C433.06 98.2699 437.07 94.7399 437.07 88.7599C437.07 82.7799 433.06 79.3299 425.32 79.3299ZM486.63 108.39H462.87L458.19 119.39H449.09L470.48 71.8599H479.17L500.63 119.39H491.4L486.63 108.39ZM483.71 101.47L474.75 80.6899L465.86 101.47H483.71ZM565.17 88.7699C565.17 99.2299 557.43 105.68 544.94 105.68H534.21V119.39H525.38V71.8599H544.93C557.43 71.8599 565.17 78.2499 565.17 88.7699ZM556.28 88.7699C556.28 82.7999 552.27 79.3299 544.54 79.3299H534.22V98.1999H544.54C552.27 98.2099 556.28 94.7399 556.28 88.7699ZM574 71.8599H582.83V119.39H574V71.8599ZM591.65 114.37L594.71 107.51C598.51 110.57 604.55 112.74 610.39 112.74C617.79 112.74 620.91 110.09 620.91 106.56C620.91 96.3099 592.67 103.03 592.67 85.3799C592.67 77.7099 598.78 71.1899 611.82 71.1899C617.52 71.1899 623.5 72.6799 627.64 75.3999L624.86 82.2599C620.58 79.7499 615.9 78.5299 611.76 78.5299C604.43 78.5299 601.44 81.3799 601.44 84.9799C601.44 95.0999 629.62 88.5099 629.62 105.96C629.62 113.56 623.44 120.08 610.41 120.08C602.99 120.07 595.59 117.76 591.65 114.37ZM634.96 95.6299C634.96 81.4399 645.82 71.1899 660.42 71.1899C668.16 71.1899 674.81 73.9699 679.23 79.1299L673.53 84.4899C670.07 80.7599 665.79 78.9199 660.83 78.9199C650.98 78.9199 643.86 85.8499 643.86 95.6199C643.86 105.39 650.99 112.32 660.83 112.32C665.79 112.32 670.06 110.49 673.53 106.68L679.23 112.11C674.82 117.27 668.16 120.05 660.35 120.05C645.82 120.07 634.96 109.82 634.96 95.6299ZM687.71 71.8599H696.54V119.39H687.71V71.8599ZM751.6 71.8599V119.39H744.33L718.12 87.2099V119.39H709.36V71.8599H716.62L742.83 104.04V71.8599H751.6ZM800 111.99V119.39H764.36V71.8599H799.05V79.2599H773.18V91.6199H796.13V98.8899H773.18V111.99H800Z" fill="#F5A364"/>
<path d="M212.37 159.1V141.48H218.964C221.196 141.48 222.95 142.017 224.225 143.091C225.517 144.148 226.163 145.625 226.163 147.521C226.163 148.763 225.87 149.837 225.282 150.743C224.712 151.632 223.89 152.32 222.816 152.807C221.742 153.277 220.458 153.512 218.964 153.512H213.402L214.232 152.656V159.1H212.37ZM224.401 159.1L219.871 152.706H221.884L226.44 159.1H224.401ZM214.232 152.807L213.402 151.926H218.914C220.676 151.926 222.01 151.54 222.916 150.768C223.839 149.996 224.301 148.914 224.301 147.521C224.301 146.111 223.839 145.021 222.916 144.249C222.01 143.477 220.676 143.091 218.914 143.091H213.402L214.232 142.21V152.807ZM230.56 159.1V141.48H242.642V143.091H232.423V157.489H243.02V159.1H230.56ZM232.221 150.944V149.359H241.535V150.944H232.221ZM234.965 140.045L238.413 136.924H240.805L236.727 140.045H234.965ZM252.256 159.251C250.947 159.251 249.689 159.041 248.48 158.622C247.289 158.185 246.366 157.632 245.712 156.96L246.442 155.526C247.062 156.13 247.893 156.641 248.934 157.061C249.991 157.464 251.098 157.665 252.256 157.665C253.364 157.665 254.262 157.531 254.95 157.262C255.654 156.977 256.166 156.599 256.485 156.13C256.821 155.66 256.988 155.14 256.988 154.569C256.988 153.881 256.787 153.327 256.384 152.908C255.998 152.488 255.487 152.161 254.849 151.926C254.211 151.674 253.506 151.456 252.734 151.272C251.963 151.087 251.191 150.894 250.419 150.693C249.647 150.474 248.934 150.189 248.279 149.837C247.641 149.484 247.121 149.023 246.718 148.452C246.333 147.865 246.14 147.101 246.14 146.162C246.14 145.289 246.366 144.492 246.819 143.77C247.289 143.032 248.002 142.445 248.959 142.008C249.915 141.555 251.14 141.329 252.634 141.329C253.624 141.329 254.606 141.471 255.579 141.757C256.552 142.025 257.391 142.403 258.096 142.889L257.467 144.375C256.712 143.871 255.906 143.502 255.05 143.267C254.211 143.032 253.397 142.915 252.609 142.915C251.551 142.915 250.679 143.057 249.991 143.343C249.303 143.628 248.791 144.014 248.455 144.5C248.136 144.97 247.977 145.507 247.977 146.111C247.977 146.799 248.17 147.353 248.556 147.773C248.959 148.192 249.479 148.519 250.117 148.754C250.771 148.989 251.484 149.199 252.256 149.384C253.028 149.568 253.792 149.77 254.547 149.988C255.319 150.206 256.024 150.491 256.661 150.844C257.316 151.179 257.836 151.632 258.222 152.203C258.625 152.773 258.826 153.52 258.826 154.443C258.826 155.299 258.591 156.096 258.121 156.834C257.651 157.556 256.93 158.143 255.956 158.596C255 159.033 253.766 159.251 252.256 159.251ZM262.884 159.1V141.48H274.967V143.091H264.747V157.489H275.344V159.1H262.884ZM264.546 150.944V149.359H273.859V150.944H264.546ZM276.904 159.1L284.958 141.48H286.796L294.851 159.1H292.887L285.487 142.562H286.242L278.842 159.1H276.904ZM280.075 154.393L280.629 152.883H290.874L291.427 154.393H280.075ZM304.495 159.251C302.246 159.251 300.476 158.605 299.184 157.313C297.892 156.021 297.246 154.108 297.246 151.574V141.48H299.108V151.498C299.108 153.579 299.578 155.114 300.518 156.104C301.458 157.095 302.783 157.59 304.495 157.59C306.224 157.59 307.558 157.095 308.497 156.104C309.437 155.114 309.907 153.579 309.907 151.498V141.48H311.719V151.574C311.719 154.108 311.073 156.021 309.781 157.313C308.506 158.605 306.744 159.251 304.495 159.251ZM323.92 159.1V141.48H330.515C332.009 141.48 333.292 141.723 334.366 142.21C335.44 142.68 336.263 143.368 336.833 144.274C337.42 145.163 337.714 146.246 337.714 147.521C337.714 148.763 337.42 149.837 336.833 150.743C336.263 151.632 335.44 152.32 334.366 152.807C333.292 153.294 332.009 153.537 330.515 153.537H324.952L325.783 152.656V159.1H323.92ZM325.783 152.807L324.952 151.901H330.465C332.227 151.901 333.561 151.523 334.467 150.768C335.39 149.996 335.851 148.914 335.851 147.521C335.851 146.111 335.39 145.021 334.467 144.249C333.561 143.477 332.227 143.091 330.465 143.091H324.952L325.783 142.21V152.807ZM338.038 159.1L346.092 141.48H347.93L355.985 159.1H354.021L346.621 142.562H347.376L339.976 159.1H338.038ZM341.209 154.393L341.763 152.883H352.008L352.562 154.393H341.209ZM358.9 159.1V141.48H365.495C367.726 141.48 369.48 142.017 370.755 143.091C372.047 144.148 372.694 145.625 372.694 147.521C372.694 148.763 372.4 149.837 371.813 150.743C371.242 151.632 370.42 152.32 369.346 152.807C368.272 153.277 366.988 153.512 365.495 153.512H359.932L360.762 152.656V159.1H358.9ZM370.932 159.1L366.401 152.706H368.414L372.97 159.1H370.932ZM360.762 152.807L359.932 151.926H365.444C367.206 151.926 368.54 151.54 369.446 150.768C370.369 149.996 370.831 148.914 370.831 147.521C370.831 146.111 370.369 145.021 369.446 144.249C368.54 143.477 367.206 143.091 365.444 143.091H359.932L360.762 142.21V152.807ZM380.267 159.1V143.091H374.075V141.48H388.322V143.091H382.13V159.1H380.267ZM391.298 159.1V141.48H403.38V143.091H393.161V157.489H403.758V159.1H391.298ZM392.959 150.944V149.359H402.273V150.944H392.959ZM408.136 159.1V141.48H409.672L421.83 156.784H421.024V141.48H422.862V159.1H421.326L409.193 143.796H409.999V159.1H408.136ZM425.793 159.1L433.848 141.48H435.686L443.741 159.1H441.777L434.377 142.562H435.132L427.732 159.1H425.793ZM428.965 154.393L429.519 152.883H439.764L440.317 154.393H428.965ZM446.655 159.1V141.48H448.518V159.1H446.655ZM454.251 159.1V141.48H460.846C463.078 141.48 464.831 142.017 466.107 143.091C467.399 144.148 468.045 145.625 468.045 147.521C468.045 148.763 467.751 149.837 467.164 150.743C466.593 151.632 465.771 152.32 464.697 152.807C463.623 153.277 462.339 153.512 460.846 153.512H455.283L456.114 152.656V159.1H454.251ZM466.283 159.1L461.752 152.706H463.766L468.322 159.1H466.283ZM456.114 152.807L455.283 151.926H460.796C462.558 151.926 463.892 151.54 464.798 150.768C465.721 149.996 466.182 148.914 466.182 147.521C466.182 146.111 465.721 145.021 464.798 144.249C463.892 143.477 462.558 143.091 460.796 143.091H455.283L456.114 142.21V152.807ZM472.441 159.1V141.48H484.524V143.091H474.304V157.489H484.901V159.1H472.441ZM474.103 150.944V149.359H483.416V150.944H474.103ZM494.138 159.251C492.829 159.251 491.57 159.041 490.362 158.622C489.171 158.185 488.248 157.632 487.593 156.96L488.323 155.526C488.944 156.13 489.775 156.641 490.815 157.061C491.872 157.464 492.98 157.665 494.138 157.665C495.245 157.665 496.143 157.531 496.831 157.262C497.536 156.977 498.048 156.599 498.367 156.13C498.702 155.66 498.87 155.14 498.87 154.569C498.87 153.881 498.669 153.327 498.266 152.908C497.88 152.488 497.368 152.161 496.73 151.926C496.093 151.674 495.388 151.456 494.616 151.272C493.844 151.087 493.072 150.894 492.3 150.693C491.528 150.474 490.815 150.189 490.161 149.837C489.523 149.484 489.003 149.023 488.6 148.452C488.214 147.865 488.021 147.101 488.021 146.162C488.021 145.289 488.248 144.492 488.701 143.77C489.171 143.032 489.884 142.445 490.84 142.008C491.797 141.555 493.022 141.329 494.515 141.329C495.505 141.329 496.487 141.471 497.46 141.757C498.434 142.025 499.273 142.403 499.977 142.889L499.348 144.375C498.593 143.871 497.788 143.502 496.932 143.267C496.093 143.032 495.279 142.915 494.49 142.915C493.433 142.915 492.56 143.057 491.872 143.343C491.184 143.628 490.672 144.014 490.337 144.5C490.018 144.97 489.859 145.507 489.859 146.111C489.859 146.799 490.052 147.353 490.438 147.773C490.84 148.192 491.36 148.519 491.998 148.754C492.653 148.989 493.366 149.199 494.138 149.384C494.91 149.568 495.673 149.77 496.428 149.988C497.2 150.206 497.905 150.491 498.543 150.844C499.197 151.179 499.717 151.632 500.103 152.203C500.506 152.773 500.707 153.52 500.707 154.443C500.707 155.299 500.473 156.096 500.003 156.834C499.533 157.556 498.811 158.143 497.838 158.596C496.881 159.033 495.648 159.251 494.138 159.251ZM511.354 159.1V141.48H517.949C519.442 141.48 520.726 141.723 521.8 142.21C522.874 142.68 523.696 143.368 524.267 144.274C524.854 145.163 525.148 146.246 525.148 147.521C525.148 148.763 524.854 149.837 524.267 150.743C523.696 151.632 522.874 152.32 521.8 152.807C520.726 153.294 519.442 153.537 517.949 153.537H512.386L513.216 152.656V159.1H511.354ZM513.216 152.807L512.386 151.901H517.898C519.66 151.901 520.994 151.523 521.901 150.768C522.824 149.996 523.285 148.914 523.285 147.521C523.285 146.111 522.824 145.021 521.901 144.249C520.994 143.477 519.66 143.091 517.898 143.091H512.386L513.216 142.21V152.807ZM529.175 159.1V141.48H535.77C538.002 141.48 539.756 142.017 541.031 143.091C542.323 144.148 542.969 145.625 542.969 147.521C542.969 148.763 542.676 149.837 542.088 150.743C541.518 151.632 540.695 152.32 539.621 152.807C538.548 153.277 537.264 153.512 535.77 153.512H530.207L531.038 152.656V159.1H529.175ZM541.207 159.1L536.676 152.706H538.69L543.246 159.1H541.207ZM531.038 152.807L530.207 151.926H535.72C537.482 151.926 538.816 151.54 539.722 150.768C540.645 149.996 541.107 148.914 541.107 147.521C541.107 146.111 540.645 145.021 539.722 144.249C538.816 143.477 537.482 143.091 535.72 143.091H530.207L531.038 142.21V152.807ZM555.068 159.251C553.742 159.251 552.509 159.033 551.368 158.596C550.244 158.143 549.262 157.514 548.423 156.709C547.601 155.886 546.955 154.938 546.485 153.864C546.032 152.773 545.805 151.582 545.805 150.29C545.805 148.998 546.032 147.815 546.485 146.741C546.955 145.65 547.601 144.702 548.423 143.896C549.262 143.074 550.244 142.445 551.368 142.008C552.492 141.555 553.726 141.329 555.068 141.329C556.394 141.329 557.619 141.555 558.743 142.008C559.867 142.445 560.841 143.066 561.663 143.871C562.502 144.677 563.148 145.625 563.601 146.716C564.071 147.806 564.306 148.998 564.306 150.29C564.306 151.582 564.071 152.773 563.601 153.864C563.148 154.955 562.502 155.903 561.663 156.709C560.841 157.514 559.867 158.143 558.743 158.596C557.619 159.033 556.394 159.251 555.068 159.251ZM555.068 157.59C556.125 157.59 557.099 157.413 557.988 157.061C558.894 156.692 559.674 156.18 560.329 155.526C561 154.854 561.52 154.082 561.89 153.21C562.259 152.32 562.443 151.347 562.443 150.29C562.443 149.233 562.259 148.268 561.89 147.395C561.52 146.506 561 145.734 560.329 145.079C559.674 144.408 558.894 143.896 557.988 143.544C557.099 143.175 556.125 142.99 555.068 142.99C554.011 142.99 553.029 143.175 552.123 143.544C551.217 143.896 550.428 144.408 549.757 145.079C549.102 145.734 548.582 146.506 548.196 147.395C547.827 148.268 547.643 149.233 547.643 150.29C547.643 151.33 547.827 152.295 548.196 153.185C548.582 154.074 549.102 154.854 549.757 155.526C550.428 156.18 551.217 156.692 552.123 157.061C553.029 157.413 554.011 157.59 555.068 157.59ZM568.481 159.1V141.48H580.563V143.091H570.344V159.1H568.481ZM570.142 151.624V150.013H579.456V151.624H570.142ZM584.41 159.1V141.48H596.492V143.091H586.273V157.489H596.87V159.1H584.41ZM586.071 150.944V149.359H595.385V150.944H586.071ZM606.106 159.251C604.797 159.251 603.539 159.041 602.331 158.622C601.139 158.185 600.216 157.632 599.562 156.96L600.292 155.526C600.913 156.13 601.743 156.641 602.784 157.061C603.841 157.464 604.948 157.665 606.106 157.665C607.214 157.665 608.112 157.531 608.8 157.262C609.504 156.977 610.016 156.599 610.335 156.13C610.671 155.66 610.838 155.14 610.838 154.569C610.838 153.881 610.637 153.327 610.234 152.908C609.848 152.488 609.337 152.161 608.699 151.926C608.061 151.674 607.356 151.456 606.585 151.272C605.813 151.087 605.041 150.894 604.269 150.693C603.497 150.474 602.784 150.189 602.129 149.837C601.491 149.484 600.971 149.023 600.569 148.452C600.183 147.865 599.99 147.101 599.99 146.162C599.99 145.289 600.216 144.492 600.669 143.77C601.139 143.032 601.852 142.445 602.809 142.008C603.765 141.555 604.99 141.329 606.484 141.329C607.474 141.329 608.456 141.471 609.429 141.757C610.402 142.025 611.241 142.403 611.946 142.889L611.317 144.375C610.562 143.871 609.756 143.502 608.9 143.267C608.061 143.032 607.247 142.915 606.459 142.915C605.401 142.915 604.529 143.057 603.841 143.343C603.153 143.628 602.641 144.014 602.305 144.5C601.987 144.97 601.827 145.507 601.827 146.111C601.827 146.799 602.02 147.353 602.406 147.773C602.809 148.192 603.329 148.519 603.967 148.754C604.621 148.989 605.334 149.199 606.106 149.384C606.878 149.568 607.642 149.77 608.397 149.988C609.169 150.206 609.874 150.491 610.511 150.844C611.166 151.179 611.686 151.632 612.072 152.203C612.475 152.773 612.676 153.52 612.676 154.443C612.676 155.299 612.441 156.096 611.971 156.834C611.501 157.556 610.78 158.143 609.806 158.596C608.85 159.033 607.617 159.251 606.106 159.251ZM621.593 159.251C620.284 159.251 619.025 159.041 617.817 158.622C616.625 158.185 615.702 157.632 615.048 156.96L615.778 155.526C616.399 156.13 617.23 156.641 618.27 157.061C619.327 157.464 620.435 157.665 621.593 157.665C622.7 157.665 623.598 157.531 624.286 157.262C624.991 156.977 625.503 156.599 625.821 156.13C626.157 155.66 626.325 155.14 626.325 154.569C626.325 153.881 626.123 153.327 625.721 152.908C625.335 152.488 624.823 152.161 624.185 151.926C623.548 151.674 622.843 151.456 622.071 151.272C621.299 151.087 620.527 150.894 619.755 150.693C618.983 150.474 618.27 150.189 617.616 149.837C616.978 149.484 616.458 149.023 616.055 148.452C615.669 147.865 615.476 147.101 615.476 146.162C615.476 145.289 615.702 144.492 616.156 143.77C616.625 143.032 617.339 142.445 618.295 142.008C619.252 141.555 620.477 141.329 621.97 141.329C622.96 141.329 623.942 141.471 624.915 141.757C625.889 142.025 626.728 142.403 627.432 142.889L626.803 144.375C626.048 143.871 625.242 143.502 624.387 143.267C623.548 143.032 622.734 142.915 621.945 142.915C620.888 142.915 620.015 143.057 619.327 143.343C618.639 143.628 618.127 144.014 617.792 144.5C617.473 144.97 617.313 145.507 617.313 146.111C617.313 146.799 617.506 147.353 617.892 147.773C618.295 148.192 618.815 148.519 619.453 148.754C620.107 148.989 620.821 149.199 621.593 149.384C622.365 149.568 623.128 149.77 623.883 149.988C624.655 150.206 625.36 150.491 625.998 150.844C626.652 151.179 627.172 151.632 627.558 152.203C627.961 152.773 628.162 153.52 628.162 154.443C628.162 155.299 627.927 156.096 627.458 156.834C626.988 157.556 626.266 158.143 625.293 158.596C624.336 159.033 623.103 159.251 621.593 159.251ZM632.221 159.1V141.48H634.083V159.1H632.221ZM647.519 159.251C646.193 159.251 644.96 159.033 643.819 158.596C642.694 158.143 641.713 157.514 640.874 156.709C640.051 155.886 639.405 154.938 638.935 153.864C638.482 152.773 638.256 151.582 638.256 150.29C638.256 148.998 638.482 147.815 638.935 146.741C639.405 145.65 640.051 144.702 640.874 143.896C641.713 143.074 642.694 142.445 643.819 142.008C644.943 141.555 646.176 141.329 647.519 141.329C648.845 141.329 650.07 141.555 651.194 142.008C652.318 142.445 653.292 143.066 654.114 143.871C654.953 144.677 655.599 145.625 656.052 146.716C656.522 147.806 656.757 148.998 656.757 150.29C656.757 151.582 656.522 152.773 656.052 153.864C655.599 154.955 654.953 155.903 654.114 156.709C653.292 157.514 652.318 158.143 651.194 158.596C650.07 159.033 648.845 159.251 647.519 159.251ZM647.519 157.59C648.576 157.59 649.549 157.413 650.439 157.061C651.345 156.692 652.125 156.18 652.78 155.526C653.451 154.854 653.971 154.082 654.34 153.21C654.71 152.32 654.894 151.347 654.894 150.29C654.894 149.233 654.71 148.268 654.34 147.395C653.971 146.506 653.451 145.734 652.78 145.079C652.125 144.408 651.345 143.896 650.439 143.544C649.549 143.175 648.576 142.99 647.519 142.99C646.462 142.99 645.48 143.175 644.574 143.544C643.668 143.896 642.879 144.408 642.208 145.079C641.553 145.734 641.033 146.506 640.647 147.395C640.278 148.268 640.093 149.233 640.093 150.29C640.093 151.33 640.278 152.295 640.647 153.185C641.033 154.074 641.553 154.854 642.208 155.526C642.879 156.18 643.668 156.692 644.574 157.061C645.48 157.413 646.462 157.59 647.519 157.59ZM660.932 159.1V141.48H662.467L674.625 156.784H673.82V141.48H675.657V159.1H674.122L661.989 143.796H662.795V159.1H660.932ZM681.408 159.1V141.48H682.944L695.102 156.784H694.296V141.48H696.134V159.1H694.598L682.465 143.796H683.271V159.1H681.408ZM701.885 159.1V141.48H713.967V143.091H703.747V157.489H714.344V159.1H701.885ZM703.546 150.944V149.359H712.859V150.944H703.546ZM718.723 159.1V141.48H720.586V157.489H730.453V159.1H718.723Z" fill="white"/>
</svg>
